<svg
                    width="24"
                    height="18"
                    viewBox="0 0 24 18"
                    fill="none"
                    xmlns="http://www.w3.org/2000/svg"
                  >
                    <path
                      d="M22.6656 3.09375H21.1406V2.7368C21.1413 2.24932 20.9489 1.7814 20.6055 1.43542C20.2621 1.08943 19.7957 0.89355 19.3082 0.890625H14.5542C14.3399 0.892178 14.1274 0.931252 13.9266 1.00608L12.3713 1.57416C12.1315 1.66157 11.8687 1.66201 11.6287 1.57538L10.0734 1.00547C9.87253 0.930828 9.6601 0.891959 9.44578 0.890625H4.69181C4.20434 0.89355 3.73787 1.08943 3.39446 1.43542C3.05105 1.7814 2.85866 2.24932 2.85938 2.7368V3.09375H1.33439C1.23155 3.09531 1.13318 3.1361 1.05941 3.20777C0.985639 3.27944 0.94203 3.37659 0.9375 3.47934V16.7246C0.942072 16.8272 0.985719 16.9243 1.0595 16.9958C1.13329 17.0674 1.23163 17.108 1.33439 17.1094H22.6656C22.7684 17.108 22.8667 17.0674 22.9405 16.9958C23.0143 16.9243 23.0579 16.8272 23.0625 16.7246V3.47934C23.058 3.37659 23.0144 3.27944 22.9406 3.20777C22.8668 3.1361 22.7685 3.09531 22.6656 3.09375ZM14.1829 1.71094C14.3016 1.66603 14.4273 1.64224 14.5542 1.64062H19.3082C19.5968 1.64332 19.8726 1.76011 20.0755 1.96549C20.2783 2.17088 20.3916 2.44816 20.3906 2.7368V12.9057C20.3906 13.5047 19.9072 13.9688 19.3082 13.9688H14.5542C14.3395 13.9726 14.1271 14.014 13.9267 14.091L12.375 14.6672V2.35312C12.4608 2.33453 12.5453 2.30984 12.6276 2.27925L14.1829 1.71094ZM3.60938 2.7368C3.60843 2.44816 3.72174 2.17088 3.92455 1.96549C4.12735 1.76011 4.40319 1.64332 4.69181 1.64062H9.44578C9.57268 1.64223 9.69833 1.66603 9.81703 1.71094L11.3724 2.27902C11.4547 2.30968 11.5391 2.33445 11.625 2.35312V14.6672L10.0734 14.0912C9.87295 14.0141 9.66054 13.9727 9.44578 13.9688H4.69181C4.09275 13.9688 3.60938 13.5047 3.60938 12.9057V2.7368ZM22.3125 16.3594H1.6875V3.84375H2.85938V12.9057C2.85966 13.1454 2.9074 13.3826 2.99983 13.6037C3.09226 13.8248 3.22755 14.0254 3.39791 14.194C3.56826 14.3625 3.77031 14.4957 3.99239 14.5857C4.21446 14.6758 4.45218 14.721 4.69181 14.7188H9.44578C9.57307 14.7227 9.69869 14.7488 9.81703 14.7958L11.3724 15.3673C11.7772 15.5168 12.2218 15.5184 12.6276 15.3717L14.1829 14.7951C14.3013 14.7483 14.427 14.7224 14.5542 14.7188H19.3082C19.5478 14.721 19.7855 14.6758 20.0076 14.5857C20.2297 14.4957 20.4317 14.3625 20.6021 14.194C20.7724 14.0254 20.9077 13.8248 21.0002 13.6037C21.0926 13.3826 21.1403 13.1454 21.1406 12.9057V3.84375H22.3125V16.3594Z"
                      fill="#A8B4B9"
                      stroke="#A8B4B9"
                      strokeWidth="0.2"
                    />
                  </svg>