<svg
                    width="18"
                    height="18"
                    viewBox="0 0 18 18"
                    fill="none"
                    xmlns="http://www.w3.org/2000/svg"
                  >
                    <path
                      d="M5.5 0H2.5C1.83696 0 1.20107 0.263392 0.732233 0.732233C0.263392 1.20107 0 1.83696 0 2.5C0 3.16304 0.263392 3.79893 0.732233 4.26777C1.20107 4.73661 1.83696 5 2.5 5H5.5C6.16304 5 6.79893 4.73661 7.26777 4.26777C7.73661 3.79893 8 3.16304 8 2.5C8 1.83696 7.73661 1.20107 7.26777 0.732233C6.79893 0.263392 6.16304 0 5.5 0ZM5.5 4H2.5C2.10218 4 1.72064 3.84196 1.43934 3.56066C1.15804 3.27936 1 2.89782 1 2.5C1 2.10218 1.15804 1.72064 1.43934 1.43934C1.72064 1.15804 2.10218 1 2.5 1H5.5C5.89782 1 6.27936 1.15804 6.56066 1.43934C6.84196 1.72064 7 2.10218 7 2.5C7 2.89782 6.84196 3.27936 6.56066 3.56066C6.27936 3.84196 5.89782 4 5.5 4V4ZM5.5 7H2.5C1.83696 7 1.20107 7.26339 0.732233 7.73223C0.263392 8.20107 0 8.83696 0 9.5V15.5C0 16.163 0.263392 16.7989 0.732233 17.2678C1.20107 17.7366 1.83696 18 2.5 18H5.5C6.16304 18 6.79893 17.7366 7.26777 17.2678C7.73661 16.7989 8 16.163 8 15.5V9.5C8 8.83696 7.73661 8.20107 7.26777 7.73223C6.79893 7.26339 6.16304 7 5.5 7ZM7 15.5C7 15.8978 6.84196 16.2794 6.56066 16.5607C6.27936 16.842 5.89782 17 5.5 17H2.5C2.10218 17 1.72064 16.842 1.43934 16.5607C1.15804 16.2794 1 15.8978 1 15.5V9.5C1 9.10218 1.15804 8.72064 1.43934 8.43934C1.72064 8.15804 2.10218 8 2.5 8H5.5C5.89782 8 6.27936 8.15804 6.56066 8.43934C6.84196 8.72064 7 9.10218 7 9.5V15.5ZM15.5 13H12.5C11.837 13 11.2011 13.2634 10.7322 13.7322C10.2634 14.2011 10 14.837 10 15.5C10 16.163 10.2634 16.7989 10.7322 17.2678C11.2011 17.7366 11.837 18 12.5 18H15.5C16.163 18 16.7989 17.7366 17.2678 17.2678C17.7366 16.7989 18 16.163 18 15.5C18 14.837 17.7366 14.2011 17.2678 13.7322C16.7989 13.2634 16.163 13 15.5 13ZM15.5 17H12.5C12.1022 17 11.7206 16.842 11.4393 16.5607C11.158 16.2794 11 15.8978 11 15.5C11 15.1022 11.158 14.7206 11.4393 14.4393C11.7206 14.158 12.1022 14 12.5 14H15.5C15.8978 14 16.2794 14.158 16.5607 14.4393C16.842 14.7206 17 15.1022 17 15.5C17 15.8978 16.842 16.2794 16.5607 16.5607C16.2794 16.842 15.8978 17 15.5 17ZM15.5 0H12.5C11.837 0 11.2011 0.263392 10.7322 0.732233C10.2634 1.20107 10 1.83696 10 2.5V8.5C10 9.16304 10.2634 9.79893 10.7322 10.2678C11.2011 10.7366 11.837 11 12.5 11H15.5C16.163 11 16.7989 10.7366 17.2678 10.2678C17.7366 9.79893 18 9.16304 18 8.5V2.5C18 1.83696 17.7366 1.20107 17.2678 0.732233C16.7989 0.263392 16.163 0 15.5 0ZM17 8.5C17 8.89782 16.842 9.27936 16.5607 9.56066C16.2794 9.84196 15.8978 10 15.5 10H12.5C12.1022 10 11.7206 9.84196 11.4393 9.56066C11.158 9.27936 11 8.89782 11 8.5V2.5C11 2.10218 11.158 1.72064 11.4393 1.43934C11.7206 1.15804 12.1022 1 12.5 1H15.5C15.8978 1 16.2794 1.15804 16.5607 1.43934C16.842 1.72064 17 2.10218 17 2.5V8.5Z"
                      fill="#A8B4B9"
                    />
                  </svg>