<svg
    width="22"
    height="25"
    viewBox="0 0 22 30"
    fill="none"
    xmlns="http://www.w3.org/2000/svg"
    >
    <path
    d="M7.83331 16.2667L9.03331 12.4333L5.86664 9.96666H9.73331L11 5.99999L12.2333 9.96666H16.1333L12.9666 12.4333L14.1333 16.2667L11 13.9L7.83331 16.2667ZM3.13331 28.6667V18.5333C2.13331 17.4889 1.41665 16.3444 0.983313 15.1C0.54998 13.8555 0.333313 12.6 0.333313 11.3333C0.333313 8.3111 1.35554 5.77777 3.39998 3.73332C5.44442 1.68888 7.97775 0.666656 11 0.666656C14.0222 0.666656 16.5555 1.68888 18.6 3.73332C20.6444 5.77777 21.6666 8.3111 21.6666 11.3333C21.6666 12.6 21.45 13.8555 21.0166 15.1C20.5833 16.3444 19.8666 17.4889 18.8666 18.5333V28.6667L11 26.0333L3.13331 28.6667ZM11 20C13.4222 20 15.4722 19.1611 17.15 17.4833C18.8277 15.8055 19.6666 13.7555 19.6666 11.3333C19.6666 8.9111 18.8277 6.8611 17.15 5.18332C15.4722 3.50554 13.4222 2.66666 11 2.66666C8.57775 2.66666 6.52775 3.50554 4.84998 5.18332C3.1722 6.8611 2.33331 8.9111 2.33331 11.3333C2.33331 13.7555 3.1722 15.8055 4.84998 17.4833C6.52775 19.1611 8.57775 20 11 20ZM5.13331 25.8667L11 24.0333L16.8666 25.8667V20.1667C15.9777 20.8111 15.0222 21.2778 14 21.5667C12.9778 21.8555 11.9778 22 11 22C10.0222 22 9.0222 21.8555 7.99998 21.5667C6.97775 21.2778 6.0222 20.8111 5.13331 20.1667V25.8667Z"
    fill="#333333"
    stroke="#333333"
    strokeWidth="0.5"
    />
</svg>