<svg
                    width="24"
                    height="23"
                    viewBox="0 0 24 23"
                    fill="none"
                    xmlns="http://www.w3.org/2000/svg"
                  >
                    <path
                      d="M3.00611 2.32446H20.9815C21.1859 2.32446 21.3516 2.49017 21.3516 2.69458V16.0805C21.3516 16.2849 21.1859 16.4506 20.9815 16.4506H3.00611C2.8017 16.4506 2.63599 16.2849 2.63599 16.0805V2.69458C2.63599 2.49017 2.8017 2.32446 3.00611 2.32446ZM20.6114 3.0647H3.37623V15.7104H20.6114V3.0647Z"
                      fill="#A8B4B9"
                      stroke="#A8B4B9"
                      strokeWidth="0.2"
                    />
                    <path
                      d="M10.0723 16.3132C10.2008 16.1552 10.1769 15.9228 10.0188 15.7942C9.86072 15.6657 9.62832 15.6896 9.49978 15.8477C7.50411 18.3132 5.17498 21.3038 5.16824 21.3124C5.04289 21.4737 5.07201 21.7061 5.2333 21.8315C5.39459 21.9568 5.62699 21.9277 5.75234 21.7664C5.75925 21.7575 8.14154 18.6985 10.0723 16.3133V16.3132ZM14.4882 15.8477C14.3596 15.6897 14.1272 15.6657 13.9692 15.7942C13.8111 15.9228 13.7871 16.1552 13.9157 16.3133C15.8464 18.6985 18.2287 21.7576 18.2356 21.7664C18.361 21.9277 18.5934 21.9568 18.7547 21.8315C18.916 21.7061 18.9451 21.4737 18.8197 21.3124C18.813 21.3038 16.4839 18.3132 14.4882 15.8477V15.8477Z"
                      fill="#A8B4B9"
                      stroke="#A8B4B9"
                      strokeWidth="0.2"
                    />
                    <path
                      d="M0.520143 15.7901C0.31574 15.7901 0.150024 15.9558 0.150024 16.1602C0.150024 16.3646 0.31574 16.5304 0.520143 16.5304H23.4675C23.6719 16.5304 23.8376 16.3646 23.8376 16.1602C23.8376 15.9558 23.6719 15.7901 23.4675 15.7901H0.520143V15.7901ZM12.4041 1.45944C12.4041 1.25503 12.2383 1.08932 12.0339 1.08932C11.8295 1.08932 11.6638 1.25503 11.6638 1.45944V2.69458C11.6638 2.89899 11.8295 3.0647 12.0339 3.0647C12.2383 3.0647 12.4041 2.89899 12.4041 2.69458V1.45944ZM5.21972 11.7903L7.06582 6.98487H7.75056L9.71749 11.7903H8.99248L8.43193 10.3347H6.42249L5.8955 11.7903H5.21972V11.7903ZM6.60598 9.81668H8.23614L7.73376 8.48636C7.5816 8.08246 7.46749 7.75017 7.39364 7.48946C7.3321 7.79827 7.24596 8.10371 7.13407 8.40804L6.60597 9.81668H6.60598ZM10.1986 11.7903V6.98487H12.0022C12.3691 6.98487 12.6634 7.0341 12.8849 7.13033C13.1076 7.22766 13.281 7.37759 13.4063 7.5801C13.5316 7.7815 13.5954 7.99295 13.5954 8.21449C13.5954 8.41923 13.5395 8.61279 13.4276 8.79405C13.3168 8.9753 13.1479 9.12187 12.923 9.23376C13.2139 9.31879 13.4365 9.46423 13.5932 9.66898C13.7498 9.87486 13.8281 10.1176 13.8281 10.3974C13.8281 10.6222 13.78 10.8315 13.6849 11.025C13.5898 11.2186 13.4723 11.3674 13.3325 11.4726C13.1926 11.5777 13.017 11.6561 12.8066 11.7098C12.5963 11.7635 12.3378 11.7903 12.0313 11.7903H10.1986V11.7903ZM10.8352 9.00438H11.8746C12.1554 9.00438 12.358 8.98537 12.481 8.94845C12.6421 8.90034 12.7641 8.82089 12.8458 8.70902C12.9274 8.59712 12.9689 8.45727 12.9689 8.28944C12.9689 8.13058 12.9308 7.9896 12.8547 7.86876C12.7775 7.74679 12.6679 7.66401 12.5269 7.61926C12.3848 7.5745 12.1409 7.55212 11.7952 7.55212H10.8352V9.00438L10.8352 9.00438ZM10.8352 11.2231H12.0313C12.2371 11.2231 12.3815 11.2152 12.4643 11.2007C12.6108 11.1738 12.7328 11.1302 12.8312 11.0687C12.9297 11.0082 13.0103 10.9187 13.074 10.8024C13.1367 10.6849 13.1691 10.5506 13.1691 10.3974C13.1691 10.2183 13.1233 10.0628 13.0315 9.92968C12.9398 9.79764 12.8122 9.70479 12.6489 9.65107C12.4866 9.59849 12.2517 9.57164 11.9462 9.57164H10.8352V11.2231V11.2231ZM18.1312 10.1053L18.7678 10.2665C18.6347 10.7878 18.3941 11.1861 18.0484 11.4614C17.7015 11.7355 17.2786 11.872 16.7774 11.872C16.2594 11.872 15.8387 11.7668 15.5142 11.5565C15.1898 11.345 14.9425 11.0396 14.7735 10.6401C14.6046 10.2396 14.5195 9.80996 14.5195 9.35123C14.5195 8.85112 14.6147 8.41477 14.806 8.04219C14.9973 7.66961 15.2692 7.38653 15.6227 7.19299C15.9752 6.99942 16.3634 6.90319 16.7875 6.90319C17.2686 6.90319 17.6725 7.02516 18.0003 7.27018C18.3281 7.5152 18.5563 7.85869 18.685 8.30288L18.0596 8.45056C17.9477 8.10037 17.7866 7.84638 17.574 7.68639C17.3625 7.52641 17.0962 7.44696 16.774 7.44696C16.4048 7.44696 16.0971 7.53535 15.8487 7.71212C15.6004 7.89003 15.4258 8.12722 15.3263 8.42595C15.2255 8.72356 15.1752 9.03124 15.1752 9.34788C15.1752 9.75738 15.2345 10.1132 15.3531 10.4186C15.4728 10.723 15.6574 10.9512 15.9092 11.1022C16.1609 11.2533 16.4328 11.3282 16.7259 11.3282C17.0817 11.3282 17.3827 11.2253 17.63 11.0206C17.8772 10.8147 18.0439 10.5092 18.1312 10.1053L18.1312 10.1053Z"
                      fill="#A8B4B9"
                      stroke="#A8B4B9"
                      strokeWidth="0.2"
                    />
                  </svg>