<svg
width="18"
height="18"
viewBox="0 0 18 18"
fill="none"
xmlns="http://www.w3.org/2000/svg"
>
<path
    d="M13.752 1.92L13.992 1.224C14.088 0.984 13.968 0.696 13.704 0.624C13.464 0.528 13.176 0.672 13.104 0.912L12.84 1.584C9.74399 0.744 6.45599 2.376 5.32799 5.4L3.76799 9.672L0.887993 10.992C0.503993 11.16 0.527993 11.712 0.935993 11.856L6.11999 13.752C5.90399 14.976 6.59999 16.2 7.79999 16.632C8.99999 17.064 10.344 16.56 10.968 15.504L16.2 17.376C16.44 17.472 16.728 17.352 16.824 17.088C16.872 16.944 16.848 16.8 16.776 16.68L15.456 13.872L17.016 9.6C18.144 6.576 16.68 3.24 13.752 1.92ZM8.15999 15.744C7.43999 15.48 7.00799 14.808 7.05599 14.088L10.08 15.168C9.64799 15.744 8.85599 15.984 8.15999 15.744ZM16.128 9.288L14.496 13.728C14.448 13.848 14.448 13.968 14.52 14.088L15.456 16.08L10.92 14.472L6.86399 13.008L2.32799 11.376L4.34399 10.44C4.46399 10.392 4.53599 10.296 4.58399 10.176L6.21599 5.736C7.19999 3.048 10.224 1.656 12.96 2.616C15.696 3.6 17.112 6.6 16.128 9.288Z"
    fill="#A8B4B9"
    stroke="#A8B4B9"
    strokeWidth="0.2"
/>
</svg>