<svg
                    width="18"
                    height="22"
                    viewBox="0 0 18 22"
                    fill="none"
                    xmlns="http://www.w3.org/2000/svg"
                  >
                    <path
                      d="M0.749817 0.5V21.4989H11.2903C11.6749 21.4992 12.0543 21.41 12.3985 21.2384C12.7427 21.0668 13.0423 20.8175 13.2736 20.5102L17.249 15.2224V0.5H0.749817ZM1.49978 1.24996H16.499V14.862L11.2449 17.2892C11.2996 17.2885 11.3544 17.2905 11.4089 17.295C11.4119 17.295 11.4148 17.295 11.4177 17.295C11.4216 17.2955 11.4255 17.296 11.4294 17.2965C11.862 17.3383 12.263 17.5413 12.5527 17.8652C12.8424 18.1892 12.9995 18.6103 12.9929 19.0448C12.9862 19.4794 12.8163 19.8955 12.5168 20.2104C12.2174 20.5253 11.8104 20.716 11.3767 20.7446C11.3718 20.7451 11.3669 20.7455 11.3621 20.746C11.3382 20.7475 11.3142 20.7485 11.2903 20.7489H1.49978V1.24996ZM15.6743 16.069L13.7408 18.6382C13.7283 18.5569 13.7116 18.4762 13.691 18.3965C13.691 18.396 13.691 18.3956 13.691 18.3951C13.6854 18.3764 13.6795 18.3579 13.6735 18.3394C13.6342 18.1994 13.5828 18.0632 13.5197 17.9322C13.5192 17.9317 13.5187 17.9312 13.5182 17.9307C13.4823 17.8565 13.4427 17.7842 13.3995 17.7139C13.3123 17.5734 13.2112 17.4418 13.0978 17.3214C13.0843 17.3071 13.0706 17.2929 13.0568 17.2789L15.6743 16.069Z"
                      fill="#A8B4B9"
                      stroke="#A8B4B9"
                      strokeWidth="0.2"
                    />
                    <path
                      d="M11.8666 5.52404C11.7381 5.5315 11.6169 5.58658 11.5269 5.67853C11.4368 5.77048 11.3842 5.8927 11.3794 6.02133L11.3309 6.87845L10.4838 6.8926C10.4122 6.8874 10.3403 6.89716 10.2727 6.92127C10.205 6.94537 10.1431 6.98328 10.0909 7.03259C10.0387 7.08191 9.99737 7.14154 9.96947 7.20771C9.94157 7.27388 9.92774 7.34512 9.92887 7.41692C9.92999 7.48872 9.94605 7.5595 9.97601 7.62476C10.006 7.69002 10.0492 7.74833 10.1029 7.79598C10.1566 7.84363 10.2197 7.87959 10.288 7.90155C10.3564 7.92352 10.4286 7.93102 10.5 7.92358L11.2743 7.91145L11.2177 8.91008C11.2087 8.98043 11.2143 9.05186 11.2341 9.11994C11.254 9.18803 11.2876 9.25132 11.3329 9.30588C11.3782 9.36044 11.4342 9.40511 11.4974 9.43713C11.5607 9.46914 11.6299 9.4878 11.7007 9.49197C11.7715 9.49613 11.8424 9.4857 11.909 9.46133C11.9756 9.43696 12.0364 9.39916 12.0878 9.35029C12.1392 9.30141 12.18 9.2425 12.2076 9.17721C12.2353 9.11192 12.2493 9.04163 12.2486 8.97072L12.3093 7.89325L13.2513 7.87708C13.3229 7.88228 13.3948 7.87252 13.4625 7.84842C13.5301 7.82432 13.592 7.78641 13.6442 7.73709C13.6964 7.68778 13.7378 7.62814 13.7657 7.56198C13.7936 7.49581 13.8074 7.42456 13.8063 7.35276C13.8051 7.28096 13.7891 7.21018 13.7591 7.14493C13.7292 7.07967 13.6859 7.02136 13.6322 6.97371C13.5785 6.92605 13.5155 6.8901 13.4471 6.86813C13.3787 6.84617 13.3065 6.83867 13.2351 6.84611L12.3659 6.86026L12.4103 6.08197C12.4162 6.00843 12.4063 5.93447 12.3812 5.86508C12.3562 5.79568 12.3166 5.73244 12.2651 5.67961C12.2136 5.62677 12.1514 5.58555 12.0826 5.55872C12.0139 5.53189 11.9402 5.52006 11.8666 5.52404V5.52404ZM8.6766 6.04154C8.65771 6.04118 8.63882 6.04186 8.62 6.04357C8.54526 6.05126 8.47309 6.07514 8.40851 6.11354C8.34392 6.15194 8.28848 6.20394 8.24602 6.26593C8.24602 6.26593 7.98629 6.64868 7.68808 7.12103C7.38987 7.59343 7.05762 8.12524 6.89362 8.57248C6.82581 8.75752 6.31993 9.64436 5.86265 10.3615C5.40537 11.0787 4.9752 11.7058 4.9752 11.7058C4.93482 11.7624 4.90619 11.8266 4.89102 11.8944C4.87584 11.9623 4.87443 12.0325 4.88685 12.1009C4.89928 12.1694 4.9253 12.2346 4.96337 12.2928C5.00144 12.351 5.05079 12.4009 5.1085 12.4397C5.16622 12.4785 5.23112 12.5053 5.29938 12.5186C5.36764 12.5319 5.43787 12.5314 5.50591 12.517C5.57396 12.5027 5.63844 12.4749 5.69555 12.4352C5.75265 12.3955 5.80122 12.3448 5.83839 12.286C5.83839 12.286 6.23631 11.6846 6.647 11.0448C6.74096 11.0291 7.35495 10.9269 8.07015 10.7881C8.45413 10.7137 8.83644 10.634 9.13953 10.5596C9.17178 10.5513 9.19394 10.545 9.22443 10.5374C9.54509 11.3878 9.94752 12.178 10.5526 12.6519C10.6059 12.6967 10.6677 12.7303 10.7343 12.7507C10.8009 12.771 10.8709 12.7777 10.9401 12.7704C11.0094 12.7631 11.0764 12.7418 11.1373 12.708C11.1981 12.6741 11.2515 12.6283 11.2942 12.5733C11.337 12.5184 11.3682 12.4553 11.386 12.388C11.4038 12.3207 11.4078 12.2504 11.3978 12.1815C11.3878 12.1126 11.364 12.0464 11.3279 11.9869C11.2917 11.9274 11.2439 11.8758 11.1873 11.8352C10.7349 11.4808 10.1182 10.1008 9.75205 8.84741C9.38589 7.59401 9.18602 6.47213 9.18602 6.47213C9.16551 6.35181 9.10314 6.24262 9.00993 6.16383C8.91671 6.08504 8.79865 6.04173 8.6766 6.04154V6.04154ZM8.45221 7.86293C8.55178 8.32371 8.56039 8.46387 8.75746 9.13851C8.79807 9.2775 8.84577 9.41972 8.88886 9.56101C8.61835 9.6272 8.24529 9.70095 7.87204 9.77327C7.62977 9.82021 7.60531 9.82242 7.3889 9.86221C7.5961 9.51355 7.76872 9.19203 7.86395 8.93232C7.94038 8.72381 8.20693 8.26597 8.45221 7.86293Z"
                      fill="#A8B4B9"
                      stroke="#A8B4B9"
                      strokeWidth="0.2"
                    />
                  </svg>