<svg
                    width="24"
                    height="24"
                    viewBox="0 0 24 24"
                    fill="none"
                    xmlns="http://www.w3.org/2000/svg"
                  >
                    <path
                      d="M6.00857 6.8927C4.71546 6.8927 3.63788 5.77682 3.63788 4.44635C3.63788 3.11588 4.71546 2 6.00857 2C7.30167 2 8.37926 3.07296 8.37926 4.44635C8.37926 5.81974 7.30167 6.8927 6.00857 6.8927ZM6.00857 2.6867C5.06029 2.6867 4.28443 3.50215 4.28443 4.48927C4.28443 5.4764 5.06029 6.29185 6.00857 6.29185C6.95684 6.29185 7.73271 5.4764 7.73271 4.48927C7.73271 3.50215 6.95684 2.6867 6.00857 2.6867Z"
                      fill="#2CA4D8"
                    />
                    <path
                      d="M6.35346 14.9184H5.70691V21.6566H6.35346V14.9184Z"
                      fill="#2CA4D8"
                    />
                    <path
                      d="M4.45686 10.3691H3.8103V14.9185H4.45686V10.3691Z"
                      fill="#2CA4D8"
                    />
                    <path
                      d="M12 6.89269C10.7069 6.89269 9.62927 5.77681 9.62927 4.44634C9.62927 3.11587 10.7069 2.04291 12 2.04291C13.2931 2.04291 14.3707 3.11587 14.3707 4.48926C14.3707 5.86265 13.2931 6.89269 12 6.89269ZM12 2.68668C11.0517 2.68668 10.2758 3.50214 10.2758 4.48926C10.2758 5.47638 11.0517 6.29184 12 6.29184C12.9482 6.29184 13.7241 5.47638 13.7241 4.48926C13.7241 3.50214 12.9482 2.68668 12 2.68668Z"
                      fill="#2CA4D8"
                    />
                    <path
                      d="M12.3449 14.9184H11.6983V21.6566H12.3449V14.9184Z"
                      fill="#2CA4D8"
                    />
                    <path
                      d="M10.4052 10.3691H9.75861V14.9185H10.4052V10.3691Z"
                      fill="#2CA4D8"
                    />
                    <path
                      d="M8.25 22H3.81034V15.2618H3.2069C2.51724 15.2618 2 14.6609 2 13.8884V9.68239C2 8.90986 2.43103 8.26608 3.07759 8.09441C5.01724 7.57938 7 7.6223 8.98276 8.09441L8.81034 8.73818C6.9569 8.26608 5.06034 8.26608 3.2069 8.73818C2.86207 8.82402 2.60345 9.21029 2.60345 9.68239V13.8884C2.60345 14.2747 2.86207 14.618 3.16379 14.618H4.41379V21.3562H7.56034V14.618H8.81034V15.2618H8.2069V22H8.25Z"
                      fill="#2CA4D8"
                    />
                    <path
                      d="M14.2413 22H9.75859V15.2618H9.15514C8.46548 15.2618 7.94824 14.6609 7.94824 13.8884V9.68239C7.94824 8.90986 8.37928 8.26608 9.02583 8.09441C10.9655 7.57938 12.9482 7.6223 14.931 8.09441L14.7586 8.73818C12.9051 8.26608 11.0086 8.26608 9.15514 8.73818C8.81031 8.82402 8.55169 9.21029 8.55169 9.68239V13.8884C8.55169 14.2747 8.81031 14.618 9.11203 14.618H10.362V21.3562H13.5086V14.618H14.7586V15.2618H14.1551V22H14.2413Z"
                      fill="#2CA4D8"
                    />
                    <path
                      d="M17.9914 6.8927C16.6983 6.8927 15.6207 5.77682 15.6207 4.44635C15.6207 3.11588 16.6983 2 17.9914 2C19.2845 2 20.3621 3.07296 20.3621 4.44635C20.3621 5.81974 19.2845 6.8927 17.9914 6.8927ZM17.9914 2.6867C17.0431 2.6867 16.2672 3.50215 16.2672 4.48927C16.2672 5.47639 17.0431 6.29185 17.9914 6.29185C18.9396 6.29185 19.7155 5.47639 19.7155 4.48927C19.7155 3.50215 18.9396 2.6867 17.9914 2.6867ZM20.1896 22H15.75V15.2618H15.1465C14.4569 15.2618 13.9396 14.6609 13.9396 13.8884V9.6824C13.9396 8.90987 14.3707 8.26609 15.0172 8.09442C16.9569 7.62232 18.9827 7.62232 20.9224 8.09442C21.5689 8.26609 22 8.90987 22 9.6824V13.8884C22 14.6609 21.4396 15.2618 20.7931 15.2618H20.1896V22ZM16.3965 21.3562H19.5431V14.618H20.7931C21.0948 14.618 21.3534 14.2747 21.3534 13.8884V9.6824C21.3534 9.2103 21.0948 8.82403 20.75 8.7382C18.8965 8.26609 17 8.26609 15.1465 8.7382C14.8017 8.82403 14.5431 9.2103 14.5431 9.6824V13.8884C14.5431 14.2747 14.8017 14.618 15.1034 14.618H16.3534V21.3562H16.3965Z"
                      fill="#2CA4D8"
                    />
                    <path
                      d="M18.2931 14.9184H17.6465V21.6566H18.2931V14.9184Z"
                      fill="#2CA4D8"
                    />
                    <path
                      d="M20.1896 10.3691H19.5431V14.9185H20.1896V10.3691Z"
                      fill="#2CA4D8"
                    />
                    <path
                      d="M16.3965 10.3691H15.7499V14.9185H16.3965V10.3691Z"
                      fill="#2CA4D8"
                    />
                  </svg>